<?xml version="1.0" encoding="iso-8859-1"?>
<!-- Generator: Adobe Illustrator 19.0.0, SVG Export Plug-In . SVG Version: 6.00 Build 0)  -->
<svg version="1.1" id="Capa_1" xmlns="http://www.w3.org/2000/svg" xmlns:xlink="http://www.w3.org/1999/xlink" x="0px" y="0px"
	 viewBox="0 0 368 368" style="enable-background:new 0 0 368 368;" xml:space="preserve">
<g>
	<g>
		<path d="M360,64H112v-8c0-30.872-25.128-56-56-56S0,25.128,0,56v256c0,30.872,25.128,56,56,56h304c4.424,0,8-3.576,8-8V72
			C368,67.576,364.424,64,360,64z M16,56c0-22.056,17.944-40,40-40c22.056,0,40,17.944,40,40v216.84
			C85.832,262.456,71.656,256,56,256s-29.832,6.456-40,16.84V56z M352,112h-40c-4.424,0-8,3.576-8,8s3.576,8,8,8h40v224H56
			c-22.056,0-40-17.944-40-40c0-22.056,17.944-40,40-40c22.056,0,40,17.944,40,40c0,4.424,3.576,8,8,8s8-3.576,8-8V128h152
			c4.424,0,8-3.576,8-8s-3.576-8-8-8H112V80h240V112z"/>
	</g>
</g>
<g>
</g>
<g>
</g>
<g>
</g>
<g>
</g>
<g>
</g>
<g>
</g>
<g>
</g>
<g>
</g>
<g>
</g>
<g>
</g>
<g>
</g>
<g>
</g>
<g>
</g>
<g>
</g>
<g>
</g>
</svg>
