<?xml version="1.0" encoding="iso-8859-1"?>
<!-- Generator: Adobe Illustrator 16.0.0, SVG Export Plug-In . SVG Version: 6.00 Build 0)  -->
<!DOCTYPE svg PUBLIC "-//W3C//DTD SVG 1.1//EN" "http://www.w3.org/Graphics/SVG/1.1/DTD/svg11.dtd">
<svg version="1.1" id="Capa_1" xmlns="http://www.w3.org/2000/svg" xmlns:xlink="http://www.w3.org/1999/xlink" x="0px" y="0px"
	 width="272.028px" height="272.028px" viewBox="0 0 272.028 272.028" style="enable-background:new 0 0 272.028 272.028;"
	 xml:space="preserve">
<g>
	<path d="M88.683,196.163c-1.033,1.03-1.906,2.229-2.597,3.56L66.468,237.63c-1.763,3.405-2.098,7.282-0.938,10.927
		c1.158,3.651,3.672,6.632,7.07,8.392c2.043,1.057,4.329,1.615,6.613,1.615c3.819,0,7.413-1.492,10.118-4.199
		c1.034-1.033,1.906-2.229,2.596-3.556l19.618-37.907c1.766-3.405,2.096-7.289,0.933-10.938s-3.677-6.629-7.075-8.391
		C99.959,190.749,93.01,191.827,88.683,196.163z"/>
	<path d="M75.502,163.673c-1.759-3.395-4.738-5.906-8.393-7.073c-3.585-1.136-7.577-0.804-10.929,0.935l-37.904,19.615
		c-1.328,0.688-2.525,1.561-3.562,2.598c-4.433,4.429-5.474,11.149-2.583,16.728c1.762,3.401,4.745,5.914,8.389,7.07
		c1.412,0.448,2.873,0.678,4.346,0.678c2.267,0,4.545-0.558,6.584-1.615l37.912-19.623c1.334-0.691,2.534-1.563,3.554-2.591
		C77.345,175.966,78.387,169.248,75.502,163.673z"/>
	<path d="M76.325,191.567l2.272-1.088l-1.056,2.196l-20.417,40.118c-3.051,5.896-3.622,12.625-1.611,18.945
		c2.009,6.327,6.361,11.488,12.254,14.537c3.527,1.824,7.472,2.789,11.415,2.789c9.331,0,17.794-5.146,22.08-13.432l19.617-37.904
		c3.056-5.896,3.626-12.627,1.615-18.951c-2.012-6.321-6.363-11.485-12.261-14.538c-2.12-1.102-4.35-1.875-6.655-2.32l3.578-5.126
		l101.5-48.643c1.348-0.645,2.132-2.074,1.964-3.561c-0.13-1.131-3.388-27.704-19.855-27.704c-2.563,0-5.284,0.683-8.073,2.033
		c-0.167,0.08-0.328,0.174-0.479,0.279L143.8,125.994c0.018-0.407-0.127-0.811-0.396-1.15l26.483-37.972
		c0.106-0.154,0.202-0.313,0.281-0.481c3.268-6.752,1.971-11.777,0.305-14.806c-5.773-10.506-23.928-12.885-25.981-13.119
		c-1.475-0.2-2.916,0.616-3.559,1.966L92.281,161.928l-5.13,3.58c-0.445-2.31-1.224-4.559-2.31-6.659
		c-4.29-8.285-12.752-13.436-22.086-13.436c-3.942,0-7.885,0.965-11.408,2.789l-37.909,19.612c-5.895,3.053-10.25,8.22-12.258,14.54
		c-2.01,6.328-1.438,13.056,1.615,18.952c4.29,8.278,12.753,13.429,22.085,13.429c3.939,0,7.881-0.962,11.375-2.771L76.325,191.567z
		 M107.01,190.466c4.236,2.193,7.363,5.899,8.809,10.438c1.444,4.541,1.032,9.373-1.159,13.606l-19.617,37.903
		c-3.08,5.951-9.158,9.647-15.857,9.647c-2.868,0-5.621-0.674-8.191-2.002c-8.735-4.524-12.166-15.308-7.631-24.062l20.464-40.221
		l4.858-10.126l5.628-2.703l-0.067,0.092c-0.778,1.109-0.838,2.57-0.164,3.747c0.672,1.174,1.94,1.872,3.317,1.749
		C100.727,188.265,104.045,188.926,107.01,190.466z M146.127,65.8c5.596,1.023,15.256,3.805,18.196,9.159
		c1.252,2.276,1.136,4.938-0.356,8.138l-39.162,56.139l-20.854,14.545L146.127,65.8z M24.88,207.727
		c-6.704,0-12.776-3.699-15.86-9.644c-2.19-4.229-2.601-9.062-1.16-13.603c1.442-4.545,4.572-8.251,8.805-10.441l37.906-19.619
		c2.563-1.328,5.32-2.002,8.184-2.002c6.702,0,12.78,3.696,15.86,9.65c1.524,2.943,2.187,6.266,1.92,9.606
		c-0.104,1.352,0.575,2.645,1.749,3.319c1.181,0.671,2.632,0.608,3.749-0.168l11.011-7.676l0,0l32.281-22.515
		c0.003-0.003,0.009-0.007,0.012-0.01l56.642-39.511c1.738-0.808,3.343-1.22,4.78-1.22c8.019,0,11.42,13.446,12.491,19.07
		L73.225,185.284l-40.169,20.444C30.494,207.053,27.743,207.727,24.88,207.727z"/>
	<path d="M244.134,27.021L224.46,45.619c-0.701,0.662-0.732,1.772-0.068,2.476c0.346,0.366,0.805,0.547,1.27,0.547
		c0.432,0,0.866-0.157,1.208-0.479l19.671-18.598c0.701-0.663,0.732-1.774,0.072-2.478
		C245.941,26.387,244.839,26.353,244.134,27.021z"/>
	<path d="M175.273,92.109L155.6,110.707c-0.698,0.662-0.732,1.772-0.068,2.478c0.346,0.364,0.804,0.547,1.272,0.547
		c0.432,0,0.866-0.159,1.205-0.481l19.674-18.598c0.698-0.662,0.732-1.772,0.068-2.478C177.087,91.479,175.979,91.44,175.273,92.109
		z"/>
	<path d="M209.704,59.566L190.03,78.162c-0.702,0.664-0.732,1.774-0.068,2.478c0.346,0.365,0.804,0.548,1.27,0.548
		c0.431,0,0.865-0.158,1.208-0.481l19.67-18.598c0.702-0.662,0.732-1.773,0.072-2.478C211.515,58.935,210.409,58.896,209.704,59.566
		z"/>
	<path d="M269.075,3.444l-10.185,9.63c-0.701,0.662-0.732,1.773-0.071,2.478c0.349,0.365,0.807,0.546,1.272,0.546
		c0.432,0,0.866-0.157,1.205-0.479l10.184-9.63c0.702-0.662,0.732-1.773,0.072-2.478C270.886,2.813,269.776,2.772,269.075,3.444z"/>
</g>
<g>
</g>
<g>
</g>
<g>
</g>
<g>
</g>
<g>
</g>
<g>
</g>
<g>
</g>
<g>
</g>
<g>
</g>
<g>
</g>
<g>
</g>
<g>
</g>
<g>
</g>
<g>
</g>
<g>
</g>
</svg>
